
<svg version="1.0" xmlns="http://www.w3.org/2000/svg"
 width="24.000000pt" height="24.000000pt" viewBox="0 0 24.000000 24.000000"
 preserveAspectRatio="xMidYMid meet">

<g transform="translate(0.000000,24.000000) scale(0.100000,-0.100000)"
fill="#000000" stroke="none">
<path d="M37 143 c-4 -3 -7 -15 -7 -25 0 -14 8 -18 39 -18 22 0 41 -5 43 -12
3 -7 7 -6 11 5 5 14 0 17 -38 17 -33 0 -45 4 -45 14 0 11 15 16 53 19 l52 3
-51 2 c-28 1 -54 -1 -57 -5z"/>
<path d="M193 145 c4 -5 -3 -20 -15 -33 l-23 -25 22 14 c28 17 36 36 20 45 -7
4 -9 3 -4 -1z"/>
<path d="M137 95 c-4 -8 -2 -17 3 -20 6 -4 10 3 10 14 0 25 -6 27 -13 6z"/>
</g>
</svg>
