<?xml version="1.0" standalone="no"?>
<!DOCTYPE svg PUBLIC "-//W3C//DTD SVG 20010904//EN"
 "http://www.w3.org/TR/2001/REC-SVG-20010904/DTD/svg10.dtd">
<svg version="1.0" xmlns="http://www.w3.org/2000/svg"
 width="64.000000pt" height="64.000000pt" viewBox="0 0 64.000000 64.000000"
 preserveAspectRatio="xMidYMid meet">

<g transform="translate(0.000000,64.000000) scale(0.100000,-0.100000)"
fill="#000000" stroke="none">
<path d="M170 473 c-74 -58 -144 -111 -155 -119 -19 -14 -19 -15 7 -40 l26
-27 126 97 c69 53 131 99 139 102 7 2 72 -40 146 -97 l133 -102 26 26 c14 15
24 28 21 30 -93 70 -89 65 -89 128 l0 59 -45 0 c-38 0 -45 -3 -45 -20 0 -11
-3 -20 -7 -20 -4 0 -33 20 -64 45 -32 25 -63 45 -71 44 -7 0 -74 -48 -148
-106z"/>
<path d="M203 359 l-103 -80 0 -115 0 -114 90 0 90 0 0 85 0 85 45 0 45 0 0
-85 0 -85 85 0 85 0 0 114 0 115 -104 80 c-57 45 -110 81 -118 81 -7 -1 -59
-37 -115 -81z"/>
</g>
</svg>
