<?xml version="1.0" standalone="no"?>
<!DOCTYPE svg PUBLIC "-//W3C//DTD SVG 20010904//EN"
 "http://www.w3.org/TR/2001/REC-SVG-20010904/DTD/svg10.dtd">
<svg version="1.0" xmlns="http://www.w3.org/2000/svg"
 width="16" height="16" viewBox="0 0 1249.000000 1249.000000"
 preserveAspectRatio="xMidYMid meet">

<g transform="translate(0.000000,1249.000000) scale(0.100000,-0.100000)"
fill="#000000" stroke="none">
<path d="M5895 12469 c-1338 -79 -2612 -586 -3640 -1449 -1915 -1608 -2692
-4163 -1989 -6547 167 -567 433 -1141 759 -1638 970 -1482 2499 -2480 4233
-2764 367 -60 451 -66 997 -66 420 0 525 3 660 18 1025 118 1955 457 2797
1019 682 455 1281 1054 1736 1736 562 842 901 1772 1019 2797 15 135 18 240
18 660 0 546 -6 630 -66 997 -251 1530 -1060 2909 -2279 3883 -1201 960 -2721
1445 -4245 1354z m4041 -3016 c65 -35 100 -69 128 -125 l26 -52 0 -3041 0
-3041 -26 -52 c-14 -29 -44 -68 -67 -87 -81 -70 106 -65 -2466 -65 -1552 0
-2338 4 -2363 10 -59 17 -130 71 -163 124 l-30 49 -3 751 c-3 842 -6 799 70
882 57 62 124 88 214 82 84 -6 144 -35 194 -95 59 -73 60 -80 60 -700 l0 -563
2020 0 2020 0 0 2705 0 2705 -2020 0 -2020 0 0 -563 c0 -626 0 -629 -65 -704
-128 -150 -372 -114 -454 67 -20 44 -21 62 -21 781 0 532 3 745 12 770 29 85
108 159 191 179 18 5 1087 7 2377 7 l2345 -2 41 -22z m-5354 -1191 c52 -24
102 -72 131 -126 22 -40 22 -51 25 -513 l3 -473 1097 -2 1097 -3 41 -22 c22
-12 57 -40 78 -63 75 -84 71 -33 71 -825 0 -793 4 -741 -72 -825 -21 -24 -60
-54 -88 -66 l-50 -24 -1087 0 -1087 0 -3 -472 c-3 -466 -3 -474 -25 -514 -28
-53 -74 -99 -127 -126 -59 -31 -174 -31 -236 1 -68 35 -1872 1838 -1905 1905
-33 65 -34 169 -4 236 15 35 222 247 917 943 493 494 915 912 936 930 84 67
193 82 288 39z"/>
</g>
</svg>
